<svg id="e8fD9pqnwTd1" xmlns="http://www.w3.org/2000/svg" xmlns:xlink="http://www.w3.org/1999/xlink" viewBox="-33 -33 350 350" shape-rendering="geometricPrecision" text-rendering="geometricPrecision" project-id="934c518863cd4f83bbee43885fe6c92a" export-id="55290888dd0f4fd5912fc7bcf12d420d" cached="false"><defs><linearGradient id="e8fD9pqnwTd4-fill" x1="0" y1="0.5" x2="1" y2="0.5" spreadMethod="pad" gradientUnits="objectBoundingBox" gradientTransform="translate(0 0)"><stop id="e8fD9pqnwTd4-fill-0" offset="0%" stop-color="#32376f"/><stop id="e8fD9pqnwTd4-fill-1" offset="66.308%" stop-color="#7f96b5"/><stop id="e8fD9pqnwTd4-fill-2" offset="100%" stop-color="#a5c5d7"/></linearGradient><linearGradient id="e8fD9pqnwTd9-fill" x1="0" y1="0.5" x2="1" y2="0.5" spreadMethod="pad" gradientUnits="objectBoundingBox" gradientTransform="translate(0 0)"><stop id="e8fD9pqnwTd9-fill-0" offset="0%" stop-color="#5b68da"/><stop id="e8fD9pqnwTd9-fill-1" offset="39%" stop-color="#535ec5"/><stop id="e8fD9pqnwTd9-fill-2" offset="93%" stop-color="#3d448b"/><stop id="e8fD9pqnwTd9-fill-3" offset="100%" stop-color="#32376f"/></linearGradient><linearGradient id="e8fD9pqnwTd12-fill" x1="0" y1="0.5" x2="1" y2="0.5" spreadMethod="pad" gradientUnits="objectBoundingBox" gradientTransform="translate(0 0)"><stop id="e8fD9pqnwTd12-fill-0" offset="0%" stop-color="#5b68da"/><stop id="e8fD9pqnwTd12-fill-1" offset="100%" stop-color="#32376f"/></linearGradient><linearGradient id="e8fD9pqnwTd19-fill" x1="0" y1="0.5" x2="1" y2="0.5" spreadMethod="pad" gradientUnits="objectBoundingBox" gradientTransform="translate(0 0)"><stop id="e8fD9pqnwTd19-fill-0" offset="0%" stop-color="#5b68da"/><stop id="e8fD9pqnwTd19-fill-1" offset="100%" stop-color="#a5c5d7"/></linearGradient><radialGradient id="e8fD9pqnwTd25-fill" cx="0" cy="0" r="0.5" spreadMethod="pad" gradientUnits="objectBoundingBox" gradientTransform="matrix(1 0 0 1.123962 0.504092 0.600612)"><stop id="e8fD9pqnwTd25-fill-0" offset="50%" stop-color="#afafaf"/><stop id="e8fD9pqnwTd25-fill-1" offset="100%" stop-color="#5c5c5c"/></radialGradient><filter id="e8fD9pqnwTd28-filter" x="-150%" y="-150%" width="400%" height="400%"><feGaussianBlur id="e8fD9pqnwTd28-filter-drop-shadow-0-blur" in="SourceAlpha" stdDeviation="0,0"/><feOffset id="e8fD9pqnwTd28-filter-drop-shadow-0-offset" dx="2" dy="2" result="tmp"/><feFlood id="e8fD9pqnwTd28-filter-drop-shadow-0-flood" flood-color="#000"/><feComposite id="e8fD9pqnwTd28-filter-drop-shadow-0-composite" operator="in" in2="tmp"/><feMerge id="e8fD9pqnwTd28-filter-drop-shadow-0-merge" result="result"><feMergeNode id="e8fD9pqnwTd28-filter-drop-shadow-0-merge-node-1"/><feMergeNode id="e8fD9pqnwTd28-filter-drop-shadow-0-merge-node-2" in="SourceGraphic"/></feMerge></filter><linearGradient id="e8fD9pqnwTd28-fill" x1="0" y1="0.5" x2="1" y2="0.5" spreadMethod="pad" gradientUnits="objectBoundingBox" gradientTransform="translate(0 0)"><stop id="e8fD9pqnwTd28-fill-0" offset="0%" stop-color="#32376f"/><stop id="e8fD9pqnwTd28-fill-1" offset="32%" stop-color="#515d8b"/><stop id="e8fD9pqnwTd28-fill-2" offset="51%" stop-color="#56638f"/><stop id="e8fD9pqnwTd28-fill-3" offset="100%" stop-color="#a5c5d7"/></linearGradient></defs><g transform="matrix(.839462 0 0 0.848061-91.742606-14.536577)"><path d="M69.665583,103.559059v-46.013493c.792342-8.343519,9.619077-17.602392,17.982285-18.193841h48.552169l.317334-22.530745c1.744953-11.350192,15.184573-22.570247,26.507485-22.157301C177.344936,-6.822818,190.469708,5.335398,192,17.138314v22.213411h49.026179c8.174837,1.221575,16.919962,10.208244,17.241838,18.193841v48.657947l23.482748.317334c11.339368,2.04299,22.464882,15.160228,21.367185,26.973427.83417,13.045583-10.209753,26.582864-21.367185,27.819653l-23.482748-.105778v45.378824c-.0264,11.141527-9.063361,21.159943-17.241838,21.261407h-46.61644l.064733-21.261407c-3.025683-14.205578-17.991375-26.467168-29.600226-25.537529-12.447706-.631064-28.758292,10.37779-30.885102,24.925115v21.873821h-46.341276c-7.722146-.908333-17.147563-8.869179-17.982285-16.952176l-.082112-46.585921h20.280575c13.619423-1.167531,26.76153-15.483169,26.349956-30.816009.235817-14.28734-12.497245-28.798277-26.349956-29.935215h-20.198463Z" transform="matrix(1.695154 0 0 1.685605-37.513439-2.847625)" filter="url(#e8fD9pqnwTd28-filter)" fill="url(#e8fD9pqnwTd28-fill)" stroke-width="0.9"/></g></svg>
