<svg id="ePz3s95HxtL1" xmlns="http://www.w3.org/2000/svg" xmlns:xlink="http://www.w3.org/1999/xlink" viewBox="-33 -33 240 240" shape-rendering="geometricPrecision" text-rendering="geometricPrecision" project-id="934c518863cd4f83bbee43885fe6c92a" export-id="681bfd752f3b42e0bed6438e88de483f" cached="false"><defs><linearGradient id="ePz3s95HxtL4-fill" x1="0" y1="0.5" x2="1" y2="0.5" spreadMethod="pad" gradientUnits="objectBoundingBox" gradientTransform="translate(0 0)"><stop id="ePz3s95HxtL4-fill-0" offset="0%" stop-color="#32376f"/><stop id="ePz3s95HxtL4-fill-1" offset="66.308%" stop-color="#7f96b5"/><stop id="ePz3s95HxtL4-fill-2" offset="100%" stop-color="#a5c5d7"/></linearGradient><filter id="ePz3s95HxtL6-filter" x="-150%" y="-150%" width="400%" height="400%"><feGaussianBlur id="ePz3s95HxtL6-filter-drop-shadow-0-blur" in="SourceAlpha" stdDeviation="0,0"/><feOffset id="ePz3s95HxtL6-filter-drop-shadow-0-offset" dx="2" dy="2" result="tmp"/><feFlood id="ePz3s95HxtL6-filter-drop-shadow-0-flood" flood-color="#000"/><feComposite id="ePz3s95HxtL6-filter-drop-shadow-0-composite" operator="in" in2="tmp"/><feMerge id="ePz3s95HxtL6-filter-drop-shadow-0-merge" result="result"><feMergeNode id="ePz3s95HxtL6-filter-drop-shadow-0-merge-node-1"/><feMergeNode id="ePz3s95HxtL6-filter-drop-shadow-0-merge-node-2" in="SourceGraphic"/></feMerge></filter><linearGradient id="ePz3s95HxtL9-fill" x1="0" y1="0.5" x2="1" y2="0.5" spreadMethod="pad" gradientUnits="objectBoundingBox" gradientTransform="translate(0 0)"><stop id="ePz3s95HxtL9-fill-0" offset="0%" stop-color="#5b68da"/><stop id="ePz3s95HxtL9-fill-1" offset="39%" stop-color="#535ec5"/><stop id="ePz3s95HxtL9-fill-2" offset="93%" stop-color="#3d448b"/><stop id="ePz3s95HxtL9-fill-3" offset="100%" stop-color="#32376f"/></linearGradient><linearGradient id="ePz3s95HxtL12-fill" x1="0" y1="0.5" x2="1" y2="0.5" spreadMethod="pad" gradientUnits="objectBoundingBox" gradientTransform="translate(0 0)"><stop id="ePz3s95HxtL12-fill-0" offset="0%" stop-color="#5b68da"/><stop id="ePz3s95HxtL12-fill-1" offset="100%" stop-color="#32376f"/></linearGradient><linearGradient id="ePz3s95HxtL19-fill" x1="0" y1="0.5" x2="1" y2="0.5" spreadMethod="pad" gradientUnits="objectBoundingBox" gradientTransform="translate(0 0)"><stop id="ePz3s95HxtL19-fill-0" offset="0%" stop-color="#5b68da"/><stop id="ePz3s95HxtL19-fill-1" offset="100%" stop-color="#a5c5d7"/></linearGradient><radialGradient id="ePz3s95HxtL25-fill" cx="0" cy="0" r="0.5" spreadMethod="pad" gradientUnits="objectBoundingBox" gradientTransform="matrix(1 0 0 1.123962 0.504092 0.600612)"><stop id="ePz3s95HxtL25-fill-0" offset="50%" stop-color="#afafaf"/><stop id="ePz3s95HxtL25-fill-1" offset="100%" stop-color="#5c5c5c"/></radialGradient><filter id="ePz3s95HxtL28-filter" x="-150%" y="-150%" width="400%" height="400%"><feGaussianBlur id="ePz3s95HxtL28-filter-drop-shadow-0-blur" in="SourceAlpha" stdDeviation="0,0"/><feOffset id="ePz3s95HxtL28-filter-drop-shadow-0-offset" dx="2" dy="2" result="tmp"/><feFlood id="ePz3s95HxtL28-filter-drop-shadow-0-flood" flood-color="#000"/><feComposite id="ePz3s95HxtL28-filter-drop-shadow-0-composite" operator="in" in2="tmp"/><feMerge id="ePz3s95HxtL28-filter-drop-shadow-0-merge" result="result"><feMergeNode id="ePz3s95HxtL28-filter-drop-shadow-0-merge-node-1"/><feMergeNode id="ePz3s95HxtL28-filter-drop-shadow-0-merge-node-2" in="SourceGraphic"/></feMerge></filter><linearGradient id="ePz3s95HxtL28-fill" x1="0" y1="0.5" x2="1" y2="0.5" spreadMethod="pad" gradientUnits="objectBoundingBox" gradientTransform="translate(0 0)"><stop id="ePz3s95HxtL28-fill-0" offset="0%" stop-color="#32376f"/><stop id="ePz3s95HxtL28-fill-1" offset="32%" stop-color="#515d8b"/><stop id="ePz3s95HxtL28-fill-2" offset="51%" stop-color="#56638f"/><stop id="ePz3s95HxtL28-fill-3" offset="100%" stop-color="#a5c5d7"/></linearGradient></defs><g transform="matrix(.72 0 0 0.72-31.8-31.8)"><g><path d="M65,330h200c8.284,0,15-6.716,15-15v-170c0-8.284-6.716-15-15-15h-15v-45c0-46.869-38.131-85-85-85s-85,38.131-85,85v45h-15c-8.284,0-15,6.716-15,15v170c0,8.284,6.716,15,15,15Zm115-95.014v20.014c0,8.284-6.716,15-15,15s-15-6.716-15-15v-20.014c-6.068-4.565-10-11.824-10-19.986c0-13.785,11.215-25,25-25s25,11.215,25,25c0,8.162-3.932,15.421-10,19.986ZM110,85c0-30.327,24.673-55,55-55s55,24.673,55,55v45h-110v-45Z" fill="url(#ePz3s95HxtL4-fill)" stroke="#32376f" stroke-width="0.33"/></g></g></svg>
