<svg id="eZSEMicxr7T1" xmlns="http://www.w3.org/2000/svg" xmlns:xlink="http://www.w3.org/1999/xlink" viewBox="-33 -33 450 300" shape-rendering="geometricPrecision" text-rendering="geometricPrecision" project-id="934c518863cd4f83bbee43885fe6c92a" export-id="ed3f29238ad14b42ba3ae89b7cf54254" cached="false"><defs><radialGradient id="eZSEMicxr7T25-fill" cx="0" cy="0" r="0.5" spreadMethod="pad" gradientUnits="objectBoundingBox" gradientTransform="matrix(1 0 0 1.123962 0.504092 0.600612)"><stop id="eZSEMicxr7T25-fill-0" offset="50%" stop-color="#afafaf"/><stop id="eZSEMicxr7T25-fill-1" offset="100%" stop-color="#5c5c5c"/></radialGradient></defs><g transform="matrix(.852531 0 0 0.816523-40.343922-105.427999)"><path d="M153.379327,438.645936c2.185891,3.495645,8.51334,8.394664,13.090466,9.462987h212.601776c1.580191,1.095465,8.544837-5.095585,13.317572-10.87319v8.898057c-2.266425,3.171751-8.17637,8.913986-11.122572,9.498324l-214.796776.520347c-5.776409-1.144425-12.952479-8.31721-13.090466-11.09803v-6.408495Z" transform="translate(0 0.000001)" fill="#434d9e" stroke="#000" stroke-width="1.224"/><path d="M153.379327,256.550113c1.803051-5.837045,8.328018-11.801526,13.090466-11.851017h212.601776c6.357911-.172561,12.818036,5.948243,13.317572,11.851017v-10.236414c-2.492415-5.18962-9.017054-9.994326-13.317572-10.63278h-212.601776c-4.295417.957814-11.088333,5.760532-13.090466,10.63278v10.236414Z" transform="translate(0 0.000001)" fill="#7180ff" stroke="#000" stroke-width="1.224"/><path d="M153.379327,256.550114v180.68562c1.682779,4.135807,7.800292,9.849842,13.090466,10.87319h212.601776c3.509175-.201374,10.250884-6.323417,13.317572-10.87319v-183.331149c-2.002101-4.580895-7.656424-8.805675-11.122572-9.205488h-214.796776c-5.001007.205912-11.537821,6.144774-13.090466,11.851017Z" fill="#5b68da" stroke="#000" stroke-width="1.224"/><path d="M260.219351,344.748294c-7.048657-2.644353-13.547722-14.146114-13.269923-22.78965c1.127434-11.418206,12.531204-25.204408,26.050571-25.097463c12.36534.167474,25.191087,12.536954,25.442498,24.953224.486188,9.353729-6.393874,20.293005-12.404495,23.510841l9.132153,64.067497-43.689954-.061207l8.73915-64.583242Z" transform="translate(.000004 0.000003)" fill="#191c3c" stroke="#000" stroke-width="1.224"/><g transform="translate(.000011-.001403)"><path d="M392.389141,282.781341c11.249961.197711,25.840932,11.883328,31.08989,21.297376c18.724677-4.208478,44.769212,10.046362,54.001136,25.338448c13.949897-17.929833,31.352027-59.358949,33.50801-83.103465-.829089-2.691787-3.553713-6.250149-5.829313-6.673317-1.909438-.510399-5.389046-.368668-7.029766.065699-2.802917-.936627-6.704744-3.648097-7.883849-5.387297.261206-.996299.374557-2.613319.065699-3.15354-1.317362-.325935-3.574374-1.45425-4.467515-2.365155-.720676-1.616695-1.179774-5.119921-.854083-7.029765-2.721018-1.379694-3.342403-1.470077-3.686127-2.048175s-1.290801-1.318419-1.766869-2.682135c-2.012568-.192869-4.771898-1.435534-5.731961-2.420162-.584734-1.37138-.355907-3.981995,0-5.179604l2.489627-.806434c1.452922-.278507,2.858598-.344022,3.242335-.542024-2.47141-.11321-3.438294-3.208547-1.102335-5.477976c6.445518-6.423605,20.756084-13.721406,28.038818-13.75856l4.515339,1.839564c5.593686,6.644723,15.529132,22.77627,19.5961,32.126686c1.771847,3.384957,4.714088,11.6115,6.569874,16.227589l-.89273,16.21861c-.419705,11.905385.376949,48.980116.89273,74.149461-.088471,17.004992-13.602358,43.745533-26.165974,54.01283-6.43081.954108-18.671517-.012465-24.495721-1.875909-23.439667,3.400294-61.334503-1.162558-75.196068-9.980494-5.838913,3.454118-15.493646,7.634331-18.907247,7.300028v-96.092279Z" fill="#5b68da" stroke="#000" stroke-width="1.224"/><g transform="translate(.000001 0.000001)"><path d="M503.803299,239.049094l-.977587-5.541813-8.232313,3.344375c.171567,2.162688,5.426538,2.611386,9.2099,2.197438Z" transform="translate(.000001 0.000003)" fill="#373e81" stroke="#000" stroke-width="1.224"/><path d="M490.245249,231.165245c1.408626-4.818619,10.112233-11.409384,16.227589-14.12523-5.517538,1.825817-14.562856,8.007053-18.738415,12.409831l2.510826,1.715399Z" transform="translate(.000001 0)" fill="#373e81" stroke="#000" stroke-width="1.224"/><path d="M490.245249,231.165245c1.408626-4.818619,10.112233-11.409384,16.227589-14.12523-5.517538,1.825817-14.562856,8.007053-18.738415,12.409831l2.510826,1.715399Z" transform="translate(-5.011493-9.567399)" fill="#373e81" stroke="#000" stroke-width="1.224"/><path d="M479.536354,217.040015c.168633-6.12068,9.496958-13.284827,16.246834-16.44423l-15.669169,8.038029-6.309626.806435v5.179604l5.731961,2.420162Z" fill="#373e81" stroke="#000" stroke-width="1.224"/></g></g><g transform="matrix(-1 0 0 1 545.768457-.001403)"><path d="M392.389141,282.781341c11.249961.197711,25.840932,11.883328,31.08989,21.297376c18.724677-4.208478,44.769212,10.046362,54.001136,25.338448c13.949897-17.929833,31.352027-59.358949,33.50801-83.103465-.829089-2.691787-3.553713-6.250149-5.829313-6.673317-1.909438-.510399-5.389046-.368668-7.029766.065699-2.802917-.936627-6.704744-3.648097-7.883849-5.387297.261206-.996299.374557-2.613319.065699-3.15354-1.317362-.325935-3.574374-1.45425-4.467515-2.365155-.720676-1.616695-1.179774-5.119921-.854083-7.029765-2.721018-1.379694-3.342403-1.470077-3.686127-2.048175s-1.290801-1.318419-1.766869-2.682135c-2.012568-.192869-4.771898-1.435534-5.731961-2.420162-.584734-1.37138-.355907-3.981995,0-5.179604l2.489627-.806434c1.452922-.278507,2.858598-.344022,3.242335-.542024-2.47141-.11321-3.438294-3.208547-1.102335-5.477976c6.445518-6.423605,20.756084-13.721406,28.038818-13.75856l4.515339,1.839564c5.593686,6.644723,15.529132,22.77627,19.5961,32.126686c1.771847,3.384957,4.714088,11.6115,6.569874,16.227589l-.89273,16.21861c-.419705,11.905385.376949,48.980116.89273,74.149461-.088471,17.004992-13.602358,43.745533-26.165974,54.01283-6.43081.954108-18.671517-.012465-24.495721-1.875909-23.439667,3.400294-61.334503-1.162558-75.196068-9.980494-5.838913,3.454118-15.493646,7.634331-18.907247,7.300028v-96.092279Z" fill="#5b68da" stroke="#000" stroke-width="1.224"/><g transform="translate(.000001 0.000001)"><path d="M503.803299,239.049094l-.977587-5.541813-8.232313,3.344375c.171567,2.162688,5.426538,2.611386,9.2099,2.197438Z" transform="translate(.000001 0.000003)" fill="#373e81" stroke="#000" stroke-width="1.224"/><path d="M490.245249,231.165245c1.408626-4.818619,10.112233-11.409384,16.227589-14.12523-5.517538,1.825817-14.562856,8.007053-18.738415,12.409831l2.510826,1.715399Z" transform="translate(.000001 0)" fill="#373e81" stroke="#000" stroke-width="1.224"/><path d="M490.245249,231.165245c1.408626-4.818619,10.112233-11.409384,16.227589-14.12523-5.517538,1.825817-14.562856,8.007053-18.738415,12.409831l2.510826,1.715399Z" transform="translate(-5.011493-9.567399)" fill="#373e81" stroke="#000" stroke-width="1.224"/><path d="M479.536354,217.040015c.168633-6.12068,9.496958-13.284827,16.246834-16.44423l-15.669169,8.038029-6.309626.806435v5.179604l5.731961,2.420162Z" fill="#373e81" stroke="#000" stroke-width="1.224"/></g></g><path d="M180.156843,235.68092l.724526-70.49433c6.879856-44.304172,55.464887-77.874225,92.118634-76.439327c43.642898.404528,89.321407,38.61463,91.335751,76.439327v70.49433h-25.989371l-1.019191-70.49433C329.650963,141.543373,299.336462,115.434775,273,117.065915c-27.896395-.650237-58.481367,24.658354-63.581282,48.120675v70.49433h-29.261875Z" fill="url(#eZSEMicxr7T25-fill)" stroke="#000" stroke-width="1.224"/></g></svg>
